<?xml version="1.0" standalone="no"?>
<!DOCTYPE svg PUBLIC "-//W3C//DTD SVG 20010904//EN"
 "http://www.w3.org/TR/2001/REC-SVG-20010904/DTD/svg10.dtd">
<svg version="1.0" xmlns="http://www.w3.org/2000/svg"
 width="512.000000pt" height="512.000000pt" viewBox="0 0 512.000000 512.000000"
 preserveAspectRatio="xMidYMid meet">
<metadata>
Created by potrace 1.11, written by Peter Selinger 2001-2013
</metadata>
<g transform="translate(0.000000,512.000000) scale(0.100000,-0.100000)"
fill="#000000" stroke="none">
<path d="M1560 4740 c-619 -81 -1174 -153 -1235 -161 l-110 -14 2 -42 c1 -23
70 -431 154 -908 83 -476 150 -868 147 -870 -2 -2 -103 -29 -223 -60 -121 -31
-237 -61 -257 -66 l-38 -10 0 -650 0 -650 163 -182 c89 -100 320 -357 511
-572 192 -214 378 -420 413 -456 l65 -66 66 19 c143 42 1567 480 1570 483 2 2
-1 41 -7 87 -36 280 -49 369 -53 373 -2 3 -48 16 -101 29 -154 39 -299 128
-387 238 -89 110 -187 290 -234 429 -56 168 -70 239 -69 359 0 106 3 123 37
220 78 223 165 362 333 534 153 155 509 408 802 567 203 111 271 129 271 73 0
-19 8 -28 30 -35 17 -6 30 -17 30 -25 0 -8 11 -19 25 -24 19 -7 25 -17 25 -39
0 -21 6 -32 19 -36 26 -8 36 -42 20 -61 -7 -9 -52 -36 -100 -60 -216 -108
-615 -355 -654 -405 -11 -14 -68 -66 -126 -116 -162 -140 -292 -304 -338 -426
-70 -189 -49 -406 59 -588 64 -108 119 -162 214 -208 46 -23 89 -41 94 -41 6
0 8 46 4 126 l-5 125 142 -7 c77 -4 141 -4 141 -1 0 18 -41 280 -45 287 -2 4
-58 20 -125 35 l-120 29 0 71 c0 171 87 616 128 657 8 8 37 3 104 -20 118 -40
157 -48 294 -62 105 -10 326 -2 430 16 l32 6 76 -230 77 -231 62 30 c73 34
119 37 147 9 16 -16 20 -33 20 -85 0 -57 -3 -69 -25 -90 -28 -29 -77 -33 -132
-10 -19 8 -39 15 -44 15 -4 0 1 -33 12 -72 38 -139 170 -579 181 -604 9 -19
19 -24 48 -24 93 0 720 71 935 105 50 8 93 15 98 15 4 0 7 411 7 914 l0 914
-47 15 c-27 9 -83 18 -125 22 l-77 7 -29 51 c-115 202 -316 369 -528 437 -140
45 -207 53 -382 47 -195 -6 -281 -26 -576 -136 -318 -119 -372 -131 -380 -88
-6 26 -6 26 -51 657 -19 272 -38 509 -40 526 -5 28 -11 33 -50 43 -24 6 -68
11 -97 10 -29 -1 -559 -68 -1178 -149z m1144 -137 c5 -34 64 -670 82 -890 8
-96 6 -97 -79 -61 -90 38 -186 106 -288 205 -55 53 -102 93 -107 89 -4 -4 -8
-89 -10 -188 -3 -164 -5 -179 -20 -172 -25 11 -60 8 -78 -7 -9 -7 -29 -39 -45
-72 l-30 -58 -61 56 c-51 48 -65 55 -87 50 -42 -10 -53 -29 -77 -122 -14 -56
-27 -89 -36 -91 -8 -2 -36 23 -62 55 -62 75 -87 89 -120 67 -30 -19 -69 -83
-86 -141 -7 -24 -17 -43 -21 -43 -4 0 -35 25 -69 56 -69 65 -69 65 -129 -26
-81 -124 -83 -162 -3 -65 l53 65 47 -32 c26 -18 49 -36 50 -41 2 -4 17 -14 34
-23 45 -23 69 -2 103 91 15 42 34 79 42 82 10 4 39 -18 81 -60 35 -37 70 -67
77 -67 29 0 67 69 85 155 7 33 19 67 26 75 15 15 16 14 121 -83 22 -22 47 -37
54 -35 6 2 26 44 43 93 17 49 37 90 43 93 7 2 26 -9 41 -25 22 -22 33 -50 51
-126 13 -54 36 -137 52 -185 16 -47 28 -86 26 -88 -10 -9 -1608 -467 -1612
-462 -4 3 -150 976 -211 1400 -21 142 -35 261 -31 264 3 4 383 59 844 124 461
65 933 131 1048 148 276 39 252 39 259 -5z"/>
<path d="M2303 4307 c-28 -29 -57 -66 -66 -83 -8 -16 -27 -40 -41 -53 l-26
-24 -52 26 c-82 41 -188 78 -188 66 0 -31 47 -71 126 -108 46 -22 84 -42 84
-44 0 -3 -7 -24 -15 -47 -8 -23 -15 -51 -15 -62 0 -19 1 -19 31 -1 17 10 39
33 51 51 11 17 21 32 24 32 2 0 33 -14 68 -32 36 -18 69 -29 73 -25 11 12 -9
39 -48 65 -74 50 -73 47 -42 100 37 64 103 161 114 168 16 9 10 24 -10 24 -10
0 -41 -24 -68 -53z"/>
<path d="M1375 4131 c-38 -23 -111 -102 -120 -130 -3 -11 -12 -21 -18 -21 -6
0 -48 18 -92 40 -81 40 -188 70 -201 57 -14 -14 38 -55 104 -82 37 -16 81 -37
99 -47 l32 -19 -48 -72 c-85 -127 -89 -142 -31 -120 28 11 50 31 75 67 18 28
45 64 58 81 l25 30 43 -24 c24 -13 53 -32 65 -42 23 -21 54 -25 54 -7 0 13
-88 98 -101 98 -4 0 -11 9 -14 20 -5 15 7 37 46 85 28 35 58 66 65 69 17 7 18
36 2 36 -7 0 -26 -8 -43 -19z"/>
<path d="M2967 2369 c-26 -16 -57 -84 -57 -128 0 -28 7 -48 24 -68 24 -27 26
-27 53 -13 41 22 75 95 70 147 -3 24 -10 50 -17 58 -14 17 -47 19 -73 4z"/>
</g>
</svg>
